<?xml version="1.0" encoding="utf-8"?>
<!-- Generator: Adobe Illustrator 16.0.3, SVG Export Plug-In . SVG Version: 6.00 Build 0)  -->
<!DOCTYPE svg PUBLIC "-//W3C//DTD SVG 1.1//EN" "http://www.w3.org/Graphics/SVG/1.1/DTD/svg11.dtd">
<svg version="1.1" id="Layer_1" xmlns="http://www.w3.org/2000/svg" xmlns:xlink="http://www.w3.org/1999/xlink" x="0px" y="0px"
	 width="30px" height="30px" viewBox="0 0 30 30" enable-background="new 0 0 30 30" xml:space="preserve">
<g id="DO_NOT_EDIT_-_BOUNDING_BOX">
	<rect id="BOUNDING_BOX" fill="none" width="30" height="30"/>
</g>
<path fill="#FFFFFF" enable-background="new    " d="M24.938,17.732c0.101-0.564,0.16-1.142,0.16-1.732
	c0-0.59-0.062-1.166-0.158-1.729l2.701-2.225c0.364-0.299,0.469-0.879,0.233-1.289l-1.896-3.285
	c-0.234-0.409-0.789-0.606-1.232-0.442l-3.27,1.227c-0.886-0.741-1.901-1.325-3.006-1.729l-0.576-3.45
	c-0.078-0.466-0.527-0.848-0.998-0.848h-3.792c-0.473,0-0.921,0.382-1,0.848l-0.575,3.45c-1.104,0.404-2.121,0.988-3.005,1.729
	l-3.27-1.225C4.812,6.866,4.257,7.063,4.021,7.473l-1.895,3.285c-0.236,0.409-0.131,0.988,0.233,1.287l2.702,2.224
	C4.962,14.833,4.901,15.41,4.901,16c0,0.592,0.061,1.168,0.16,1.732L2.36,19.955c-0.364,0.301-0.469,0.881-0.233,1.291l1.895,3.281
	c0.237,0.41,0.792,0.605,1.233,0.443l3.268-1.227c0.885,0.738,1.901,1.32,3.005,1.729l0.575,3.449c0.078,0.469,0.529,0.85,1,0.85
	h3.792c0.474,0,0.922-0.381,1-0.85l0.574-3.449c1.104-0.404,2.121-0.986,3.006-1.729l3.271,1.228
	c0.441,0.163,0.997-0.035,1.23-0.443l1.896-3.282c0.234-0.41,0.131-0.99-0.232-1.289L24.938,17.732z M14.999,21.148
	c-2.84,0-5.15-2.311-5.15-5.148s2.31-5.15,5.15-5.15c2.839,0,5.149,2.312,5.149,5.15C20.148,18.84,17.838,21.148,14.999,21.148z"/>
<path opacity="0.15" enable-background="new    " d="M24.938,16.732c0.101-0.564,0.16-1.142,0.16-1.732
	c0-0.59-0.062-1.166-0.158-1.729l2.701-2.225c0.364-0.299,0.469-0.879,0.233-1.289l-1.896-3.285
	c-0.234-0.409-0.789-0.607-1.232-0.442l-3.27,1.226c-0.886-0.741-1.901-1.325-3.006-1.729l-0.576-3.451
	c-0.078-0.465-0.527-0.847-0.998-0.847h-3.792c-0.473,0-0.921,0.382-1,0.847l-0.575,3.451c-1.104,0.404-2.121,0.988-3.005,1.729
	l-3.27-1.225C4.812,5.866,4.257,6.064,4.021,6.473L2.126,9.758c-0.236,0.409-0.131,0.988,0.233,1.288l2.702,2.224
	c-0.099,0.564-0.16,1.14-0.16,1.731c0,0.592,0.061,1.168,0.16,1.731L2.36,18.955c-0.364,0.301-0.469,0.881-0.233,1.291l1.895,3.281
	c0.237,0.41,0.792,0.605,1.233,0.443l3.268-1.227c0.885,0.738,1.901,1.32,3.005,1.729l0.575,3.449c0.078,0.469,0.529,0.85,1,0.85
	h3.792c0.474,0,0.922-0.381,1-0.85l0.574-3.449c1.104-0.404,2.121-0.986,3.006-1.729l3.271,1.228
	c0.441,0.163,0.997-0.035,1.23-0.443l1.896-3.282c0.234-0.41,0.131-0.99-0.232-1.289L24.938,16.732z M14.999,20.148
	c-2.84,0-5.15-2.311-5.15-5.148s2.31-5.15,5.15-5.15c2.839,0,5.149,2.311,5.149,5.15C20.148,17.84,17.838,20.148,14.999,20.148z"/>
<linearGradient id="SVGID_1_" gradientUnits="userSpaceOnUse" x1="289" y1="-361.771" x2="289" y2="-334.229" gradientTransform="matrix(1 0 0 -1 -274 -333)">
	<stop  offset="0" style="stop-color:#636363"/>
	<stop  offset="1" style="stop-color:#000000"/>
</linearGradient>
<path fill="url(#SVGID_1_)" d="M24.938,16.732c0.101-0.564,0.16-1.142,0.16-1.732c0-0.59-0.062-1.166-0.158-1.729l2.701-2.225
	c0.364-0.299,0.469-0.879,0.233-1.289l-1.896-3.285c-0.234-0.409-0.789-0.607-1.232-0.442l-3.27,1.226
	c-0.886-0.741-1.901-1.325-3.006-1.729l-0.576-3.451c-0.078-0.465-0.527-0.847-0.998-0.847h-3.792c-0.473,0-0.921,0.382-1,0.847
	l-0.575,3.451c-1.104,0.404-2.121,0.988-3.005,1.729l-3.27-1.225C4.812,5.866,4.257,6.064,4.021,6.473L2.126,9.758
	c-0.236,0.409-0.131,0.988,0.233,1.288l2.702,2.224c-0.099,0.564-0.16,1.14-0.16,1.731c0,0.592,0.061,1.168,0.16,1.731L2.36,18.955
	c-0.364,0.301-0.469,0.881-0.233,1.291l1.895,3.281c0.237,0.41,0.792,0.605,1.233,0.443l3.268-1.227
	c0.885,0.738,1.901,1.32,3.005,1.729l0.575,3.449c0.078,0.469,0.529,0.85,1,0.85h3.792c0.474,0,0.922-0.381,1-0.85l0.574-3.449
	c1.104-0.404,2.121-0.986,3.006-1.729l3.271,1.228c0.441,0.163,0.997-0.035,1.23-0.443l1.896-3.282
	c0.234-0.41,0.131-0.99-0.232-1.289L24.938,16.732z M14.999,20.148c-2.84,0-5.15-2.311-5.15-5.148s2.31-5.15,5.15-5.15
	c2.839,0,5.149,2.311,5.149,5.15C20.148,17.84,17.838,20.148,14.999,20.148z"/>
</svg>
