<?xml version="1.0" encoding="utf-8"?>
<!-- Generator: Adobe Illustrator 16.0.3, SVG Export Plug-In . SVG Version: 6.00 Build 0)  -->
<!DOCTYPE svg PUBLIC "-//W3C//DTD SVG 1.1//EN" "http://www.w3.org/Graphics/SVG/1.1/DTD/svg11.dtd">
<svg version="1.1" id="Layer_1" xmlns="http://www.w3.org/2000/svg" xmlns:xlink="http://www.w3.org/1999/xlink" x="0px" y="0px"
	 width="30px" height="30px" viewBox="0 0 30 30" enable-background="new 0 0 30 30" xml:space="preserve">
<g id="DO_NOT_EDIT_-_BOUNDING_BOX">
	<rect id="BOUNDING_BOX" fill="none" width="30" height="30"/>
</g>
<path fill="#FFFFFF" enable-background="new    " d="M18.654,16l8.043-8.042c0.404-0.403,0.404-1.06,0-1.462l-2.193-2.193
	c-0.404-0.404-1.059-0.404-1.461,0L15,12.343L6.958,4.303c-0.404-0.404-1.059-0.404-1.463,0L3.303,6.496
	c-0.404,0.402-0.404,1.059,0,1.462L11.346,16l-8.043,8.041c-0.404,0.404-0.404,1.059,0,1.463l2.193,2.193
	c0.404,0.404,1.059,0.404,1.463,0L15,19.654l8.043,8.043c0.402,0.404,1.057,0.404,1.461,0l2.193-2.193
	c0.404-0.404,0.404-1.059,0-1.463L18.654,16z"/>
<path opacity="0.15" enable-background="new    " d="M18.654,15l8.043-8.042c0.404-0.403,0.404-1.06,0-1.462l-2.193-2.193
	c-0.404-0.404-1.059-0.404-1.461,0L15,11.344L6.959,3.303c-0.404-0.404-1.059-0.404-1.463,0L3.303,5.496
	c-0.404,0.402-0.404,1.059,0,1.462L11.346,15l-8.043,8.041c-0.404,0.404-0.404,1.059,0,1.463l2.193,2.193
	c0.404,0.404,1.059,0.404,1.463,0L15,18.654l8.043,8.043c0.402,0.404,1.057,0.404,1.461,0l2.193-2.193
	c0.404-0.404,0.404-1.059,0-1.463L18.654,15z"/>
<linearGradient id="SVGID_1_" gradientUnits="userSpaceOnUse" x1="15.0005" y1="27" x2="15.0005" y2="3.001">
	<stop  offset="0" style="stop-color:#636363"/>
	<stop  offset="1" style="stop-color:#000000"/>
</linearGradient>
<path fill="url(#SVGID_1_)" d="M18.654,15l8.043-8.042c0.404-0.403,0.404-1.06,0-1.462l-2.193-2.193
	c-0.404-0.404-1.059-0.404-1.461,0L15,11.344L6.959,3.303c-0.404-0.404-1.059-0.404-1.463,0L3.303,5.496
	c-0.404,0.402-0.404,1.059,0,1.462L11.346,15l-8.043,8.041c-0.404,0.404-0.404,1.059,0,1.463l2.193,2.193
	c0.404,0.404,1.059,0.404,1.463,0L15,18.654l8.043,8.043c0.402,0.404,1.057,0.404,1.461,0l2.193-2.193
	c0.404-0.404,0.404-1.059,0-1.463L18.654,15z"/>
<rect fill="none" width="30" height="30"/>
</svg>
